<svg role="img" viewBox="0 0 135 29" xmlns="http://www.w3.org/2000/svg"><title>Sheetz</title><path fill="#dd132c" d="m67.34794,27.96938c-35.82401,0-59.316-3.01001-65.662-3.93298l-.727-.10602.137-.72198c.55562-2.86145.8568-5.76642.9-8.68097-.04091-2.89423-.3401-5.77899-.894-8.62l-.139-.72803.734-.09998c6.448-.89398,30.238-3.81403,65.652-3.88,35.072,0,59.046,2.927,65.55799,3.823l.726.09998-.129.72101c-1.12701,5.73596-1.12939,11.63617-.007,17.37299l.127.71503-.71899.09998c-6.35799.92798-29.866,3.93799-65.55699,3.93799Zm-20.958-7.42798v-12.05103h-1.6v5.43103h-10.127v-5.43103h-1.6v5.42999l-.893.00702c-1.077,0-2.23-.06799-2.782-.10498v1.45502c.69-.04303,1.9-.10699,2.971-.10699h.7v5.37h1.6v-5.38h10.133v5.38l1.598.00098Zm-34.329-.51898c2.07335.38806,4.18109.56195,6.29.51898,2.0957.04236,4.19024-.12958,6.251-.513v-6.09998h-10.976v-3.948l.633-.06403c1.35181-.12787,2.70919-.18762,4.067-.17902,2.10354-.008,4.20379.16699,6.277.52301v-1.23499c-2.07325-.37476-4.17726-.55292-6.284-.53198-2.10813-.03705-4.21458.13989-6.287.52802v6.14398h10.973v3.92493l-.642.05701c-1.059.09302-2.412.14301-4.022.15002h-.195c-2.03971.0144-4.07648-.15735-6.085-.513v1.23804Zm98.128-.08801c2.12674.37994,4.28362.56573,6.444.55499h.05901c2.04492-.0271,4.08455-.21503,6.10001-.56201v-1.20502c-2.01111.34888-4.04698.53583-6.088.55902h-.07002c-1.123,0-2.242-.04999-3.328-.14001l-1.856-.15399,11.343-8.44202v-1.71503c-2.12682-.37915-4.28369-.56421-6.444-.55298h-.06599c-2.04491.02667-4.08453.21423-6.10001.56097v1.20001c2.00713-.34845,4.039-.53503,6.076-.55798h.084c1.16901,0,2.28999.05103,3.332.14099l1.847.15997-11.339,8.43402.00601,1.71906Zm-10.383.55103v-10.80505l.72099.01801c1.65236.034,3.29962.1958,4.927.48401v-1.22998c-2.1046-.39032-4.24419-.55988-6.384-.50598-2.13741-.04706-4.2742.1181-6.379.49298v1.22998c1.58415-.28973,3.18973-.44666,4.8-.46899l.722-.01898v10.79999l1.593.00403Zm-24.389-.52899c2.05541.3819,4.14362.55908,6.234.52899,2.12231.03943,4.24306-.13885,6.329-.53198v-1.22601c-2.09375.38367-4.22081.55554-6.349.513-1.493,0-2.83-.05499-3.974-.164l-.637-.06097v-3.909h.7c.4,0,.877,0,1.4-.00598.688,0,1.456-.008,2.229-.008,1.93,0,3.271.02698,4.149.086v-1.38812c-1.012.08301-2.493.12299-4.589.12299-.739,0-1.454,0-2.09-.00897l-1.8-.008v-3.96503l.636-.06201c.813-.07898,2.188-.17401,4.115-.17401,2.10562-.0387,4.21022.12067,6.286.47601v-1.18799c-2.06194-.40826-4.1627-.58734-6.264-.534-2.13682-.03046-4.27126.15448-6.371.552v4.90002h-3.573v1.20001h3.577l-.00801,4.85504Zm-20.9,0c2.05502.38226,4.14297.55914,6.233.52802,2.12231.03967,4.2431-.13861,6.329-.53198v-1.22498c-2.09346.38336-4.22015.55518-6.348.513-1.493,0-2.83-.05499-3.974-.164l-.637-.06097v-3.909h.7c.4,0,.878,0,1.4-.00598.689,0,1.456-.008,2.229-.008,1.93,0,3.271.02698,4.149.086v-1.38818c-1.012.08301-2.494.12299-4.589.12299-.739,0-1.455,0-2.09-.00897l-1.8-.008v-3.96399l.636-.06201c.812-.07898,2.186-.17401,4.114-.17401,2.10599-.0415,4.21115.11755,6.287.47498v-1.18597c-2.06195-.4082-4.1627-.58728-6.264-.534-2.13648-.03027-4.27058.15466-6.37.552v4.90002h-3.57502v1.20001h3.577l-.00699,4.85303Z"/><path fill="#fff" d="m67.34694,1.9034c35.532,0,59.92,3.05298,65.461,3.81598-1.14082,5.81769-1.14354,11.80127-.008,17.62-5.427.78802-29.287,3.92499-65.453,3.92499-36.265,0-60.113-3.133-65.561-3.92499.56452-2.90448.86972-5.85345.912-8.81201-.04013-2.9386-.34368-5.86768-.907-8.75201,5.531-.76599,29.738-3.80603,65.557-3.87201m42.13799,8.98602c2.23349-.43347,4.50107-.66772,6.776-.70001h.08501c1.23399,0,2.33099.05701,3.274.138l-10.13499,7.53802v2.63898c2.34938.49188,4.74593.7226,7.146.68799h.065c2.28185-.0318,4.55679-.25861,6.8-.67798v-2.63898c-2.23885.43372-4.51175.66797-6.79199.70001h-.069c-1.23399,0-2.33-.06-3.272-.138l10.133-7.54102v-2.63898c-2.34938-.49182-4.74596-.72223-7.146-.68701h-.065c-2.28177.03162-4.55669.25775-6.8.67603v2.63898m-17.5.21899l.406-.13702c1.67812-.37549,3.39239-.56561,5.11201-.56702v10.78503h3v-10.784c1.767.02179,3.52779.21368,5.258.573l.39101.12402v-2.70599c-2.32716-.50598-4.70763-.72424-7.088-.65002-2.37869-.07684-4.75774.14081-7.083.64801v2.71698m-20.841,4.70001h3.576l-.01,4.71198c2.27599.51221,4.60701.73828,6.939.67297,2.36393.08368,4.72858-.14429,7.033-.67798v-2.68402l-.457.11798c-2.16736.46747-4.38407.66595-6.6.591-1.8,0-3.076-.08197-3.907-.16101v-2.565c.93,0,2.269-.01398,3.628-.01398,1.763,0,3.559.02197,4.538.12097l.314.01599v-2.89502l-.463.01898c-1.24.12097-3.1.14697-4.83.14697-1.208,0-2.354-.013-3.187-.01501v-2.62402c.842-.08197,2.18-.16998,4.047-.16998,2.19431-.07361,4.38967.11066,6.541.54901l.4.10999.052.01501v-2.64203c-2.28104-.54224-4.62502-.77301-6.968-.68597-2.37817-.05927-4.75455.1759-7.075.70001v4.755h-3.573v2.60901m-20.9,0h3.575l-.009,4.71198c2.27562.51239,4.60633.73846,6.938.67297,2.3636.08386,4.72795-.1441,7.032-.67798v-2.68402l-.455.11798c-2.16737.46735-4.38408.66583-6.6.591-1.8,0-3.077-.08197-3.907-.16101v-2.565c.93,0,2.27-.01398,3.629-.01398,1.763,0,3.559.02197,4.537.12097l.315.01599v-2.89502l-.463.01898c-1.24.12097-3.1.14697-4.83.14697-1.208,0-2.354-.013-3.186-.01501v-2.62402c.841-.08197,2.178-.16998,4.046-.16998,2.19431-.07367,4.38967.1106,6.541.54901l.4.10999.053.01501v-2.64203c-2.28104-.54224-4.62502-.77295-6.968-.68597-2.37785-.05933-4.7539.17578-7.074.70001v4.755h-3.57003v2.60901m-14.872-2.58868v-5.435h-3v5.435h-.2c-1.3,0-2.76-.09998-3.057-.12701l-.429-.04901v2.98999l.337-.03003c.353-.02502,1.966-.133,3.338-.133v5.37097h3v-5.38098h8.719v5.38098h3.006V7.78542h-2.998v5.43103h-8.719m-24.041,2.64801h10.974v2.57703c-.79.06897-2.044.13898-3.964.14801h-.187c-2.15035.02954-4.29774-.16962-6.406-.59399l-.387-.09998v2.68298l.228.05298c2.22227.47699,4.49421.6825,6.766.612,2.26751.07129,4.53525-.13422,6.753-.612l.2-.05798v-7.35303h-10.977v-2.60901c1.32956-.12531,2.66458-.18372,4-.17499,2.34467-.02466,4.68517.20331,6.981.67999v-2.66302c-2.29555-.49298-4.64061-.71753-6.988-.66901-2.26897-.05804-4.5369.151-6.757.62299l-.233.06v7.40002M67.34994.49447h0C31.90494.56044,8.06494,3.48446,1.60294,4.37947l-1.468.20001.278,1.45599c.5457,2.79749.84087,5.63806.882,8.48798-.04269,2.87024-.33952,5.73114-.887,8.54901l-.274,1.44501,1.455.211c6.358.92401,29.891,3.94,65.763,3.94,35.752,0,59.29201-3.01599,65.65599-3.94l1.437-.20801-.25301-1.42999c-1.10669-5.65558-1.10431-11.47229.007-17.12701l.258-1.44202-1.451-.20001c-6.52299-.90002-30.536-3.83002-65.653-3.83002l-.00298.00305Zm31.566,8.65503h.189v10.63593h-.189v-10.63593Zm-53.418.04303h.191v10.64398h-.191v-10.64398Zm-11.724,0h.189v10.64203h-.192v-10.63916l.003-.00287Zm21.45.39288l.19-.03198v4.85498h0v5l-.193-.03198.007-3.56702v-1.41101h0v-4.81299h-.00401Zm20.9,0l.19-.03198v4.85498h0v5l-.194-.03198.008-3.56702v-1.41101h-.006v-4.81299h.00199Zm-63.392.01599l.186-.03101v4.89502h-.186v-4.86401Zm10.973,9.87903v-4.84601h.19v4.81598l-.19.03101v-.00098Z"/></svg>